<!DOCTYPE svg PUBLIC "-//W3C//DTD SVG 1.1//EN" "http://www.w3.org/Graphics/SVG/1.1/DTD/svg11.dtd">
<!-- Uploaded to: SVG Repo, www.svgrepo.com, Transformed by: SVG Repo Mixer Tools -->
<svg height="800px" width="800px" version="1.1" id="Layer_1" xmlns="http://www.w3.org/2000/svg" xmlns:xlink="http://www.w3.org/1999/xlink" viewBox="0 0 512 512" xml:space="preserve" fill="#000000">
<g id="SVGRepo_bgCarrier" stroke-width="0"/>
<g id="SVGRepo_tracerCarrier" stroke-linecap="round" stroke-linejoin="round"/>
<g id="SVGRepo_iconCarrier"> <g transform="translate(1 1)"> <g> <path style="fill:#fd0808;" d="M24.6,502.467h187.733v-85.333H24.6V502.467z"/> <path style="fill:#fd0808;" d="M297.667,502.467H485.4v-85.333H297.667V502.467z"/> <path style="fill:#fd0808;" d="M212.333,502.467h85.333v-85.333h-85.333V502.467z"/> </g> <path style="fill:#ff0a0a;" d="M24.6,212.333h460.8V7.533H24.6V212.333z"/> <path style="fill:#fd0808;" d="M485.4,212.333h17.067V7.533H485.4V212.333z"/> <path style="fill:#FFFFFF;" d="M7.533,212.333H24.6V7.533H7.533V212.333z"/> <path style="fill:#ff0a0a;" d="M24.6,417.133h460.8v-204.8H24.6V417.133z"/> <path style="fill:#fd0808;" d="M485.4,502.467h17.067V212.333H485.4V502.467z"/> <path style="fill:#FFFFFF;" d="M7.533,502.467H24.6V212.333H7.533V502.467z"/> <path style="fill:#54C9FD;" d="M58.733,417.133H127v-153.6H58.733V417.133z"/> <path style="fill:#1CD759;" d="M127,417.133h68.267V246.467H127V417.133z"/> <path style="fill:#33A9F8;" d="M58.733,297.667H127v-34.133H58.733V297.667z"/> <path style="fill:#15A143;" d="M127,280.6h68.267v-34.133H127V280.6z"/> <path style="fill:#1CD759;" d="M417.133,417.133h-179.2c10.24-15.36,10.24-35.84,0-51.2h179.2c14.507,0,25.6,11.093,25.6,25.6 S431.64,417.133,417.133,417.133"/> <path style="fill:#54C9FD;" d="M442.733,365.933h-179.2c10.24-15.36,10.24-35.84,0-51.2h179.2c14.507,0,25.6,11.093,25.6,25.6 C468.333,354.84,457.24,365.933,442.733,365.933"/> <path style="fill:#fd0808;" d="M417.133,314.733h-179.2c10.24-15.36,10.24-35.84,0-51.2h179.2c14.507,0,25.6,11.093,25.6,25.6 C442.733,303.64,431.64,314.733,417.133,314.733"/> <path style="fill:#54C9FD;" d="M41.667,212.333h51.2V75.8h-51.2V212.333z"/> <path style="fill:#33A9F8;" d="M41.667,109.933h51.2V75.8h-51.2V109.933z"/> <path style="fill:#DB4D6C;" d="M92.867,212.333h51.2V92.867h-51.2V212.333z"/> <path style="fill:#D21F47;" d="M92.867,127h51.2V92.867h-51.2V127z"/> <path style="fill:#1CD759;" d="M144.067,212.333h51.2V75.8h-51.2V212.333z"/> <path style="fill:#15A143;" d="M144.067,109.933h51.2V75.8h-51.2V109.933z"/> <path style="fill:#54C9FD;" d="M195.267,212.333h51.2V75.8h-51.2V212.333z"/> <path style="fill:#33A9F8;" d="M195.267,75.8h51.2V41.667h-51.2V75.8z"/> <path style="fill:#fd0808;" d="M365.933,191l-42.667,21.333l-62.293-122.88l46.08-22.187L365.933,191z"/> <path style="fill:#fd0808;" d="M307.053,67.267l-46.08,22.187l-14.507-30.72l46.08-22.187L307.053,67.267z"/> <g> <path style="fill:#020101;" d="M502.467,220.867H7.533c-5.12,0-8.533-3.413-8.533-8.533V7.533C-1,2.413,2.413-1,7.533-1h494.933 C507.587-1,511,2.413,511,7.533v204.8C511,217.453,507.587,220.867,502.467,220.867z M16.067,203.8h477.867V16.067H16.067V203.8z"/> <path style="fill:#020101;" d="M92.867,220.867h-51.2c-5.12,0-8.533-3.413-8.533-8.533V75.8c0-5.12,3.413-8.533,8.533-8.533h51.2 c5.12,0,8.533,3.413,8.533,8.533v136.533C101.4,217.453,97.987,220.867,92.867,220.867z M50.2,203.8h34.133V84.333H50.2V203.8z"/> <path style="fill:#020101;" d="M246.467,220.867h-51.2c-5.12,0-8.533-3.413-8.533-8.533V41.667c0-5.12,3.413-8.533,8.533-8.533 h51.2c5.12,0,8.533,3.413,8.533,8.533v170.667C255,217.453,251.587,220.867,246.467,220.867z M203.8,203.8h34.133V50.2H203.8 V203.8z"/> <path style="fill:#020101;" d="M144.067,220.867h-51.2c-5.12,0-8.533-3.413-8.533-8.533V92.867c0-5.12,3.413-8.533,8.533-8.533 h51.2c5.12,0,8.533,3.413,8.533,8.533v119.467C152.6,217.453,149.187,220.867,144.067,220.867z M101.4,203.8h34.133V101.4H101.4 V203.8z"/> <path style="fill:#020101;" d="M195.267,220.867h-51.2c-5.12,0-8.533-3.413-8.533-8.533V75.8c0-5.12,3.413-8.533,8.533-8.533h51.2 c5.12,0,8.533,3.413,8.533,8.533v136.533C203.8,217.453,200.387,220.867,195.267,220.867z M152.6,203.8h34.133V84.333H152.6V203.8 z"/> <path style="fill:#020101;" d="M502.467,425.667H7.533c-5.12,0-8.533-3.413-8.533-8.533v-204.8c0-5.12,3.413-8.533,8.533-8.533 h494.933c5.12,0,8.533,3.413,8.533,8.533v204.8C511,422.253,507.587,425.667,502.467,425.667z M16.067,408.6h477.867V220.867 H16.067V408.6z"/> <path style="fill:#020101;" d="M212.333,511H7.533C2.413,511-1,507.587-1,502.467v-85.333c0-5.12,3.413-8.533,8.533-8.533h204.8 c5.12,0,8.533,3.413,8.533,8.533v85.333C220.867,507.587,217.453,511,212.333,511z M16.067,493.933H203.8v-68.267H16.067V493.933z "/> <path style="fill:#020101;" d="M502.467,511h-204.8c-5.12,0-8.533-3.413-8.533-8.533v-85.333c0-5.12,3.413-8.533,8.533-8.533 h204.8c5.12,0,8.533,3.413,8.533,8.533v85.333C511,507.587,507.587,511,502.467,511z M306.2,493.933h187.733v-68.267H306.2 V493.933z"/> <path style="fill:#020101;" d="M118.467,459.8c0,5.12-3.413,8.533-8.533,8.533s-8.533-3.413-8.533-8.533s3.413-8.533,8.533-8.533 S118.467,455.533,118.467,459.8"/> <path style="fill:#020101;" d="M408.6,459.8c0,5.12-3.413,8.533-8.533,8.533s-8.533-3.413-8.533-8.533s3.413-8.533,8.533-8.533 S408.6,455.533,408.6,459.8"/> <path style="fill:#020101;" d="M297.667,511h-85.333c-5.12,0-8.533-3.413-8.533-8.533v-85.333c0-5.12,3.413-8.533,8.533-8.533 h85.333c5.12,0,8.533,3.413,8.533,8.533v85.333C306.2,507.587,302.787,511,297.667,511z M220.867,493.933h68.267v-68.267h-68.267 V493.933z"/> <path style="fill:#020101;" d="M92.867,118.467h-51.2c-5.12,0-8.533-3.413-8.533-8.533V75.8c0-5.12,3.413-8.533,8.533-8.533h51.2 c5.12,0,8.533,3.413,8.533,8.533v34.133C101.4,115.053,97.987,118.467,92.867,118.467z M50.2,101.4h34.133V84.333H50.2V101.4z"/> <path style="fill:#020101;" d="M144.067,135.533h-51.2c-5.12,0-8.533-3.413-8.533-8.533V92.867c0-5.12,3.413-8.533,8.533-8.533 h51.2c5.12,0,8.533,3.413,8.533,8.533V127C152.6,132.12,149.187,135.533,144.067,135.533z M101.4,118.467h34.133V101.4H101.4 V118.467z"/> <path style="fill:#020101;" d="M195.267,118.467h-51.2c-5.12,0-8.533-3.413-8.533-8.533V75.8c0-5.12,3.413-8.533,8.533-8.533h51.2 c5.12,0,8.533,3.413,8.533,8.533v34.133C203.8,115.053,200.387,118.467,195.267,118.467z M152.6,101.4h34.133V84.333H152.6V101.4z "/> <path style="fill:#020101;" d="M246.467,84.333h-51.2c-5.12,0-8.533-3.413-8.533-8.533V41.667c0-5.12,3.413-8.533,8.533-8.533 h51.2c5.12,0,8.533,3.413,8.533,8.533V75.8C255,80.92,251.587,84.333,246.467,84.333z M203.8,67.267h34.133V50.2H203.8V67.267z"/> <path style="fill:#020101;" d="M323.267,220.867c-3.413,0-5.973-1.707-7.68-4.267L253.293,93.72 c-0.853-1.707-0.853-4.267-0.853-6.827c0.853-2.56,2.56-4.267,4.267-5.12l46.08-22.187c1.707-0.853,4.267-0.853,6.827,0 c2.56,0.853,4.267,2.56,5.12,4.267l58.88,122.88c1.707,4.267,0,9.387-4.267,11.093L326.68,219.16 C325.827,220.867,324.973,220.867,323.267,220.867z M272.92,93.72l54.613,107.52l28.16-14.507l-51.2-107.52L272.92,93.72z"/> <path style="fill:#020101;" d="M260.973,97.987c-3.413,0-5.973-1.707-7.68-5.12l-14.507-30.72c-1.707-4.267,0-9.387,4.267-11.093 l46.08-22.187c1.707-0.853,4.267-0.853,6.827,0c1.707,0.853,3.413,1.707,4.267,4.267l14.507,30.72 c1.707,4.267,0,9.387-4.267,11.093l-46.08,22.187C263.533,97.987,262.68,97.987,260.973,97.987z M257.56,63l7.68,15.36 l30.72-14.507l-7.68-15.36L257.56,63z"/> <path style="fill:#020101;" d="M127,425.667H58.733c-5.12,0-8.533-3.413-8.533-8.533v-153.6c0-5.12,3.413-8.533,8.533-8.533H127 c5.12,0,8.533,3.413,8.533,8.533v153.6C135.533,422.253,132.12,425.667,127,425.667z M67.267,408.6h51.2V272.067h-51.2V408.6z"/> <path style="fill:#020101;" d="M127,306.2H58.733c-5.12,0-8.533-3.413-8.533-8.533v-34.133c0-5.12,3.413-8.533,8.533-8.533H127 c5.12,0,8.533,3.413,8.533,8.533v34.133C135.533,302.787,132.12,306.2,127,306.2z M67.267,289.133h51.2v-17.067h-51.2V289.133z"/> <path style="fill:#020101;" d="M195.267,425.667H127c-5.12,0-8.533-3.413-8.533-8.533V246.467c0-5.12,3.413-8.533,8.533-8.533 h68.267c5.12,0,8.533,3.413,8.533,8.533v170.667C203.8,422.253,200.387,425.667,195.267,425.667z M135.533,408.6h51.2V255h-51.2 V408.6z"/> <path style="fill:#020101;" d="M195.267,289.133H127c-5.12,0-8.533-3.413-8.533-8.533v-34.133c0-5.12,3.413-8.533,8.533-8.533 h68.267c5.12,0,8.533,3.413,8.533,8.533V280.6C203.8,285.72,200.387,289.133,195.267,289.133z M135.533,272.067h51.2V255h-51.2 V272.067z"/> <path style="fill:#020101;" d="M92.867,391.533c-5.12,0-8.533-3.413-8.533-8.533v-51.2c0-5.12,3.413-8.533,8.533-8.533 s8.533,3.413,8.533,8.533V383C101.4,388.12,97.987,391.533,92.867,391.533z"/> <path style="fill:#020101;" d="M161.133,391.533c-5.12,0-8.533-3.413-8.533-8.533v-68.267c0-5.12,3.413-8.533,8.533-8.533 c5.12,0,8.533,3.413,8.533,8.533V383C169.667,388.12,166.253,391.533,161.133,391.533z"/> <path style="fill:#020101;" d="M417.133,425.667h-179.2c-3.413,0-5.973-1.707-7.68-4.267s-1.707-5.973,0-8.533 c8.533-12.8,8.533-29.013,0-41.813c-1.707-2.56-1.707-5.973,0-8.533c1.707-2.56,4.267-4.267,7.68-4.267h179.2 c18.773,0,34.133,15.36,34.133,34.133C451.267,411.16,435.907,425.667,417.133,425.667z M251.587,408.6h165.547 c9.387,0,17.067-7.68,17.067-17.067s-7.68-17.067-17.067-17.067H251.587C255,385.56,255,397.507,251.587,408.6z"/> <path style="fill:#020101;" d="M442.733,374.467h-179.2c-3.413,0-5.973-1.707-7.68-4.267c-1.707-2.56-1.707-5.973,0-8.533 c8.533-12.8,8.533-29.013,0-41.813c-1.707-2.56-1.707-5.973,0-8.533c1.707-2.56,4.267-4.267,7.68-4.267h179.2 c18.773,0,34.133,15.36,34.133,34.133S461.507,374.467,442.733,374.467z M277.187,357.4h165.547 c9.387,0,17.067-7.68,17.067-17.067s-7.68-17.067-17.067-17.067H277.187C280.6,334.36,280.6,346.307,277.187,357.4z"/> <path style="fill:#020101;" d="M417.133,323.267h-179.2c-3.413,0-5.973-1.707-7.68-4.267c-1.707-2.56-1.707-5.973,0-8.533 c8.533-12.8,8.533-29.013,0-41.813c-1.707-2.56-1.707-5.973,0-8.533c1.707-2.56,4.267-4.267,7.68-4.267h179.2 c18.773,0,34.133,15.36,34.133,34.133S435.907,323.267,417.133,323.267z M251.587,306.2h165.547 c9.387,0,17.067-7.68,17.067-17.067c0-9.387-7.68-17.067-17.067-17.067H251.587C255,283.16,255,295.107,251.587,306.2z"/> </g> </g> </g>
</svg>